<?xml version="1.0" standalone="no"?>
<!DOCTYPE svg PUBLIC "-//W3C//DTD SVG 20010904//EN"
 "http://www.w3.org/TR/2001/REC-SVG-20010904/DTD/svg10.dtd">
<svg version="1.0" xmlns="http://www.w3.org/2000/svg"
 width="2560.000000pt" height="2560.000000pt" viewBox="0 0 2560.000000 2560.000000"
 preserveAspectRatio="xMidYMid meet">

<g transform="translate(0.000000,2560.000000) scale(0.100000,-0.100000)"
fill="#000000" stroke="none">
<path d="M10941 18525 c-218 -49 -399 -150 -562 -314 -264 -264 -394 -621
-360 -991 11 -112 32 -185 99 -337 43 -96 72 -192 72 -237 0 -37 43 -78 140
-135 47 -27 182 -107 301 -179 266 -160 421 -243 530 -283 196 -72 448 -108
622 -90 99 10 139 24 172 61 65 73 261 225 415 323 211 135 607 295 809 328
163 26 360 -37 465 -150 l30 -31 -167 0 c-157 0 -174 -2 -299 -34 -403 -104
-721 -289 -981 -573 -91 -100 -102 -122 -86 -185 17 -71 7 -163 -24 -224 -24
-47 -155 -184 -177 -184 -12 0 -64 -69 -57 -76 11 -12 247 -96 322 -115 201
-51 344 -114 467 -206 195 -146 427 -325 439 -339 23 -28 -19 -7 -336 166 -27
15 -182 98 -342 184 -268 144 -299 158 -375 171 -135 24 -144 23 -292 -54
-131 -68 -510 -294 -561 -335 -19 -15 -28 -34 -32 -65 -6 -43 -5 -44 18 -38
13 4 31 7 40 7 9 0 47 23 84 50 116 85 153 68 184 -85 20 -96 26 -145 17 -145
-3 0 -47 14 -98 32 -91 32 -97 32 -258 31 -202 -2 -292 -18 -557 -104 -333
-109 -417 -130 -534 -136 -121 -6 -182 4 -274 48 -201 95 -296 291 -321 657
-6 93 -9 103 -28 108 -381 94 -383 95 -521 154 -63 27 -138 56 -167 65 -72 21
-166 19 -237 -6 l-60 -20 -66 20 c-40 13 -94 21 -134 21 -89 0 -135 -26 -178
-100 -54 -94 -87 -134 -133 -160 -41 -22 -59 -25 -225 -31 -191 -8 -226 -14
-319 -60 -137 -68 -238 -168 -256 -254 -6 -29 -30 -87 -54 -129 -44 -77 -83
-202 -107 -346 -8 -44 -13 -153 -12 -265 1 -407 74 -675 226 -829 71 -72 128
-108 230 -144 67 -24 83 -26 245 -25 l173 1 11 -24 c13 -27 -26 -15 623 -203
248 -72 560 -164 695 -204 l244 -72 -89 -7 c-173 -14 -341 -29 -415 -38 -41
-5 -138 -16 -215 -25 -77 -8 -214 -24 -305 -34 -91 -11 -221 -24 -290 -30
-261 -23 -349 -33 -485 -52 -147 -21 -502 -77 -692 -110 -62 -10 -179 -30
-260 -44 -157 -27 -677 -118 -1083 -190 -135 -24 -366 -64 -515 -89 -671 -114
-673 -114 -728 -175 -20 -22 -39 -55 -42 -73 -4 -19 -1 -99 5 -178 10 -133 20
-222 65 -565 57 -437 85 -681 105 -935 6 -74 15 -173 20 -220 5 -47 14 -132
20 -190 6 -58 15 -143 20 -190 5 -47 14 -130 20 -185 5 -55 21 -199 34 -320
14 -121 30 -269 36 -330 62 -618 88 -739 170 -809 42 -35 107 -51 280 -71 80
-9 177 -20 215 -26 39 -5 143 -16 233 -24 194 -17 215 -25 332 -124 160 -135
309 -228 670 -413 252 -130 375 -186 740 -340 405 -170 523 -226 800 -380 376
-208 702 -365 1495 -718 121 -54 263 -118 315 -143 52 -25 133 -57 180 -72
149 -48 164 -54 235 -101 39 -26 293 -159 565 -295 445 -224 585 -288 1050
-484 74 -31 205 -91 290 -132 245 -119 364 -157 587 -189 215 -31 616 -21 898
22 310 47 491 112 1030 374 105 51 300 145 435 210 135 65 409 197 610 295
374 181 632 303 1125 533 154 72 397 187 540 257 395 193 657 317 900 427 121
54 321 145 445 201 307 139 1012 491 1250 624 274 154 323 185 431 269 51 41
117 85 144 99 70 35 197 59 510 100 435 56 473 67 533 157 38 59 52 168 112
923 15 194 30 350 40 440 5 44 19 168 30 275 11 107 27 247 35 310 13 101 50
422 75 655 13 116 47 420 65 566 68 581 75 677 52 712 -24 37 -76 52 -377 107
-285 53 -385 74 -655 141 -341 85 -528 121 -1185 233 -362 61 -502 82 -860
126 -135 16 -263 33 -285 36 l-39 6 51 20 c60 22 120 77 148 133 17 34 20 67
23 215 8 342 -26 443 -245 738 -143 191 -370 412 -566 550 -34 24 -142 84
-240 133 l-177 89 -44 68 c-54 84 -219 268 -311 345 -145 122 -209 145 -458
163 -128 9 -197 19 -218 30 -23 11 -40 36 -68 97 -45 98 -115 168 -219 219
-60 30 -75 33 -157 33 -80 0 -97 -3 -155 -31 -36 -17 -94 -50 -129 -72 -70
-46 -111 -53 -151 -25 -32 22 -15 4 -245 263 -387 438 -704 768 -872 909 -192
162 -446 328 -666 437 -90 44 -160 87 -203 123 -127 109 -141 117 -240 151
-96 33 -103 34 -259 34 -186 0 -247 -13 -550 -114 -99 -33 -194 -60 -211 -60
-54 0 -58 13 -51 188 17 425 -57 775 -222 1055 -154 261 -483 491 -831 583
-121 32 -340 42 -439 19z m74 -890 c57 -19 183 -66 279 -104 319 -127 549
-166 825 -143 215 19 213 20 247 -228 18 -142 20 -374 3 -465 -23 -118 -74
-194 -161 -238 -79 -40 -158 -50 -349 -43 -407 14 -738 109 -1020 291 -179
116 -283 268 -325 475 -20 99 -15 248 11 321 30 85 104 150 195 170 67 15 186
0 295 -36z m2840 -1298 c74 -16 355 -180 455 -266 36 -31 85 -73 110 -93 25
-20 59 -51 76 -70 94 -100 113 -118 131 -118 27 0 509 -487 698 -705 81 -93
233 -268 338 -388 122 -140 221 -266 277 -350 47 -73 120 -177 161 -232 41
-55 99 -134 129 -175 30 -41 176 -236 323 -433 199 -265 274 -373 287 -413
l19 -54 -57 6 c-51 6 -84 23 -305 156 -282 170 -364 211 -527 263 -184 58
-198 64 -222 98 -108 157 -229 265 -487 434 -97 63 -188 124 -203 134 -38 27
-44 25 -67 -24 -16 -32 -21 -63 -21 -119 0 -105 -12 -134 -63 -152 -47 -16
-215 -31 -512 -46 -110 -6 -219 -13 -242 -16 -24 -4 -43 -2 -43 2 0 5 27 25
60 44 53 31 66 45 112 125 83 145 132 218 285 428 79 108 141 202 138 207 -9
14 -70 12 -108 -4 -34 -14 -122 -102 -283 -286 -189 -215 -289 -298 -494 -410
-63 -35 -139 -76 -167 -92 -47 -25 -53 -27 -54 -11 -3 41 3 72 27 149 32 103
25 125 -48 159 -29 14 -66 25 -81 25 -72 0 -137 -58 -202 -182 l-37 -70 43
-84 c43 -83 45 -85 121 -126 43 -23 76 -43 74 -45 -2 -2 -59 20 -127 50 -205
89 -549 250 -545 254 2 2 53 11 112 19 282 38 309 60 182 152 -40 29 -89 65
-108 81 -34 29 -34 30 -16 50 16 18 31 21 92 21 67 0 124 14 124 30 0 19 -54
49 -125 69 -44 12 -111 41 -150 64 -99 58 -203 126 -210 136 -6 10 32 81 44
81 3 0 15 -6 26 -14 11 -7 74 -42 140 -77 66 -34 134 -73 152 -87 41 -31 74
-26 94 14 l15 32 205 -134 c253 -166 329 -213 377 -230 45 -16 133 -18 185 -3
74 20 347 244 398 326 27 44 14 65 -65 106 -344 174 -501 249 -557 264 -62 16
-83 16 -294 2 -261 -16 -277 -14 -402 49 -44 23 -85 42 -91 42 -5 0 -36 33
-69 73 -33 39 -98 117 -143 172 -46 55 -136 155 -202 222 -155 159 -182 212
-176 341 7 140 44 196 230 340 92 71 135 96 302 171 l194 89 208 12 c115 7
261 16 324 20 173 10 171 11 235 -3z m-1687 -1464 c231 -248 261 -286 262
-320 0 -17 -4 -34 -9 -37 -5 -4 -38 1 -73 9 -87 20 -98 20 -98 -9 0 -49 27
-90 204 -312 139 -173 179 -230 166 -232 -31 -5 -303 65 -435 113 -147 54
-367 152 -470 210 l-70 40 36 3 c21 2 45 12 54 22 17 19 17 23 0 77 -58 193
-58 195 -47 252 12 54 70 191 82 191 3 0 18 -13 33 -28 22 -23 27 -37 27 -83
1 -130 40 -266 105 -363 72 -108 235 -246 293 -246 44 0 43 27 -5 82 -150 173
-228 357 -240 565 -5 86 -3 106 11 128 15 22 45 42 68 44 3 1 51 -47 106 -106z
m-4149 -29 c164 -37 322 -138 534 -342 240 -232 396 -347 602 -447 147 -72
208 -90 415 -126 235 -40 248 -44 276 -70 32 -30 30 -59 -5 -93 -26 -25 -42
-30 -147 -43 -130 -15 -200 -42 -258 -96 -30 -29 -35 -41 -41 -102 -17 -154
11 -332 74 -468 50 -109 111 -179 242 -277 19 -15 52 -113 41 -124 -11 -11
-100 -6 -141 9 -23 8 -56 26 -75 40 -106 81 -232 357 -301 660 -42 186 -62
232 -120 291 -43 43 -68 57 -174 99 -255 101 -423 218 -701 492 -112 111 -269
252 -370 333 -160 128 -240 210 -240 245 0 12 79 32 155 38 60 5 162 -3 234
-19z m8889 -389 c108 -22 209 -74 279 -143 58 -57 133 -140 133 -146 0 -2 -18
-11 -39 -20 -22 -8 -42 -24 -46 -36 -4 -11 -17 -27 -30 -36 -21 -14 -27 -13
-61 1 -27 11 -53 14 -89 10 l-51 -7 4 -67 4 -67 -76 -1 c-64 -1 -83 2 -121 24
-26 14 -48 23 -51 20 -3 -3 -1 -29 5 -58 6 -28 10 -54 8 -56 -2 -2 -27 29 -55
69 -28 40 -107 135 -176 210 -69 76 -130 146 -136 157 -18 35 -12 90 14 116
18 18 38 25 92 30 38 3 78 7 89 9 61 10 236 4 303 -9z m-9476 -135 c55 -60 67
-78 77 -127 7 -32 15 -67 17 -78 9 -35 16 -478 9 -532 -5 -38 -15 -64 -38 -91
-18 -22 -41 -52 -53 -67 l-20 -29 -86 44 -86 44 -31 76 c-31 74 -31 76 -31
256 0 155 4 199 26 310 26 127 27 130 81 197 30 37 59 67 63 67 4 0 37 -31 72
-70z m3954 -96 c118 -33 217 -83 296 -148 71 -59 164 -170 191 -230 9 -22 24
-44 31 -50 8 -6 17 -31 21 -55 l7 -44 -27 7 c-26 7 -27 5 -21 -21 l6 -28 -17
28 c-10 15 -22 26 -28 24 -18 -6 -18 -60 0 -73 11 -8 15 -23 13 -46 l-4 -33
-17 38 c-10 20 -22 37 -27 37 -6 0 -10 10 -10 23 0 17 -10 26 -43 40 -40 16
-46 16 -80 2 -33 -14 -52 -45 -27 -45 6 0 10 -18 10 -40 0 -22 -4 -40 -10 -40
-11 0 -34 43 -44 83 -9 36 -26 35 -26 -3 0 -16 4 -30 8 -30 4 0 9 -18 10 -40
2 -23 -2 -40 -8 -40 -5 0 -10 14 -10 30 0 18 -5 30 -13 30 -7 0 -13 8 -14 18
-5 63 -27 116 -46 109 -19 -6 -21 -59 -3 -69 9 -5 16 -20 16 -34 0 -13 7 -27
15 -30 24 -9 18 -24 -10 -24 -21 0 -26 6 -31 40 -8 48 -34 56 -34 10 0 -34
-15 -40 -25 -10 -3 11 -11 20 -16 20 -5 0 -9 10 -10 23 0 21 -1 21 -12 4 -25
-39 -33 -46 -58 -52 -21 -5 -27 -1 -38 22 l-13 28 -39 -44 c-22 -24 -41 -42
-42 -40 -51 68 -83 120 -117 189 -93 186 -203 307 -351 385 -57 30 -71 34 -94
25 -14 -5 -65 -10 -113 -10 l-87 0 38 25 c93 64 90 64 468 64 343 1 348 1 435
-25z m1466 -86 c88 -32 178 -93 161 -108 -27 -25 -63 -18 -162 30 -100 49
-119 65 -107 95 7 20 5 20 108 -17z m-2682 -184 c0 -9 -53 -75 -57 -71 -8 9
31 77 44 77 7 0 13 -3 13 -6z m7533 -72 c31 -11 87 -41 125 -65 74 -50 234
-208 216 -214 -7 -2 -38 9 -70 26 -62 31 -142 56 -151 47 -11 -11 42 -79 109
-138 187 -167 304 -353 378 -603 103 -349 119 -393 150 -415 27 -20 31 -20 54
-5 52 35 56 51 56 243 0 98 -4 182 -8 188 -12 13 -52 114 -46 114 3 0 23 -19
44 -42 33 -37 43 -60 71 -163 61 -228 67 -271 49 -336 -28 -99 -178 -165 -283
-125 -30 11 -63 38 -106 86 -34 38 -83 82 -109 97 -101 59 -219 24 -367 -109
-116 -105 -152 -128 -195 -128 -48 0 -56 11 -75 96 -26 112 -78 264 -92 264
-25 0 -23 -22 8 -122 67 -217 46 -306 -81 -346 -66 -22 -1172 -202 -1236 -202
-41 0 -63 26 -113 131 -31 67 -218 389 -236 407 -2 2 -11 0 -19 -5 -14 -7 -12
-17 15 -73 41 -87 123 -294 138 -350 7 -25 11 -66 9 -90 -3 -40 -7 -47 -38
-62 -25 -13 -59 -18 -121 -18 -132 0 -193 15 -263 65 -175 124 -334 162 -712
172 l-230 6 -82 -35 c-148 -64 -232 -118 -317 -203 -49 -48 -92 -103 -110
-138 -16 -31 -45 -73 -65 -92 -58 -57 -103 -68 -299 -73 -346 -8 -646 47 -954
175 -59 25 -109 49 -112 53 -3 5 30 16 72 25 309 66 387 96 428 165 45 78 11
249 -91 451 -114 229 -290 438 -616 734 -233 211 -283 283 -283 402 0 83 23
107 120 128 241 51 506 18 731 -89 133 -64 196 -108 524 -372 344 -275 512
-405 624 -482 174 -119 389 -195 671 -237 131 -20 152 -19 205 10 l45 23 -55
26 c-31 15 -73 26 -96 26 -133 0 -352 64 -535 155 -203 101 -439 258 -439 291
0 20 16 17 77 -11 55 -26 227 -61 647 -130 309 -51 418 -45 585 35 112 54 142
78 311 250 158 162 187 179 274 165 88 -14 348 -158 675 -373 63 -41 134 -83
158 -94 47 -21 232 -44 244 -30 13 12 -9 204 -29 262 -11 30 -33 87 -50 127
-17 39 -28 73 -26 76 3 2 24 1 48 -4 109 -20 543 -70 687 -79 107 -6 168 -14
188 -25 37 -19 51 -63 51 -165 0 -93 10 -112 36 -73 32 47 27 187 -10 286 -36
98 -199 347 -285 434 -37 37 -61 70 -61 84 0 21 3 21 93 17 58 -3 113 -13 150
-26z m-874 -200 l-1 -47 -19 40 c-10 22 -19 58 -19 80 l0 40 20 -33 c13 -21
20 -49 19 -80z m-2869 42 c0 -3 -28 -52 -62 -109 l-63 -103 -59 -6 c-32 -4
-61 -5 -64 -1 -8 7 130 147 188 191 44 33 60 40 60 28z m-3307 -32 c56 -25
118 -88 147 -149 31 -66 121 -385 131 -466 10 -82 -4 -282 -27 -370 -38 -149
-154 -301 -273 -360 -103 -51 -174 -33 -282 70 -75 72 -78 76 -138 221 l-61
147 -2 190 c-3 185 -2 194 31 335 18 80 46 172 62 205 29 63 102 146 150 171
74 38 184 41 262 6z m1265 -75 c2 -15 8 -27 13 -27 5 0 9 -18 9 -41 0 -24 -4
-38 -10 -34 -5 3 -10 17 -10 30 0 13 -5 25 -10 27 -6 2 -13 21 -17 42 -5 31
-3 38 8 34 8 -2 15 -17 17 -31z m82 -54 c0 -22 -26 -15 -38 11 -6 13 -8 27 -5
30 9 8 43 -24 43 -41z m-596 22 c3 -9 0 -15 -9 -15 -8 0 -15 7 -15 15 0 8 4
15 9 15 5 0 11 -7 15 -15z m396 -10 c0 -8 -2 -15 -4 -15 -2 0 -6 7 -10 15 -3
8 -1 15 4 15 6 0 10 -7 10 -15z m3070 -19 c0 -26 -98 -295 -126 -347 -31 -56
-76 -89 -124 -89 -31 0 -405 98 -464 122 -35 14 -66 63 -66 103 0 50 65 141
121 170 29 15 193 33 419 44 245 13 240 13 240 -3z m-3240 -61 c0 -25 -4 -45
-10 -45 -5 0 -10 20 -10 45 0 25 5 45 10 45 6 0 10 -20 10 -45z m200 5 c0 -29
-4 -40 -15 -40 -11 0 -15 11 -15 40 0 29 4 40 15 40 11 0 15 -11 15 -40z m54
18 c8 -31 7 -38 -3 -38 -5 0 -11 14 -13 30 -5 35 7 41 16 8z m6380 -102 c51
-41 76 -71 121 -146 5 -8 -53 46 -128 120 -75 74 -137 136 -137 138 0 3 19
-11 43 -30 23 -19 69 -55 101 -82z m-7015 10 c12 -15 23 -129 15 -150 -11 -29
-54 120 -53 184 l0 55 15 -39 c8 -21 18 -44 23 -50z m-4039 64 c10 -5 21 -23
25 -39 3 -17 26 -48 50 -70 51 -47 98 -54 150 -23 17 10 38 21 49 25 21 8 21
8 -51 -95 l-39 -55 -81 77 c-49 47 -92 99 -107 129 -34 66 -34 71 4 51z m2740
-65 c0 -9 -7 -32 -15 -52 -9 -21 -15 -66 -15 -110 0 -47 -4 -72 -10 -68 -5 3
-10 26 -10 50 0 55 30 195 42 195 4 0 8 -7 8 -15z m211 -825 c27 -108 27 -110
-22 -110 -34 0 -40 3 -35 18 7 27 19 154 18 187 -2 30 -2 30 9 5 6 -14 19 -59
30 -100z m-215 32 c7 -31 9 -61 6 -67 -7 -11 -41 116 -34 128 8 15 17 -4 28
-61z m-28 -629 c23 -42 40 -78 38 -81 -6 -6 -197 -18 -486 -32 -588 -28 -954
-57 -1525 -120 -44 -5 -125 -14 -180 -20 -222 -25 -274 -31 -620 -75 -198 -25
-394 -50 -435 -55 -194 -24 -559 -76 -780 -111 -181 -28 -242 -38 -317 -49
-172 -27 -504 -87 -618 -113 -92 -21 -101 -25 -123 -57 -22 -33 -24 -41 -18
-130 4 -52 11 -133 16 -180 6 -47 15 -125 20 -175 6 -49 15 -124 20 -165 37
-282 63 -472 80 -580 11 -69 25 -159 31 -200 5 -41 14 -102 19 -135 5 -33 18
-127 29 -210 28 -208 70 -517 81 -595 5 -36 14 -105 21 -155 6 -49 22 -156 35
-237 13 -81 24 -167 24 -190 0 -54 18 -89 54 -107 28 -13 51 -10 376 50 172
32 312 56 570 99 561 93 637 105 1000 150 135 16 279 34 320 40 41 5 120 14
175 20 55 6 136 15 180 20 388 45 799 82 1460 130 970 70 1342 84 2670 101
931 12 2255 7 2550 -10 99 -6 329 -17 510 -26 653 -30 838 -43 1570 -105 66
-5 201 -17 300 -25 412 -35 592 -50 965 -85 425 -40 1041 -108 1360 -150 41
-6 179 -24 305 -41 198 -26 505 -70 695 -99 30 -5 87 -13 125 -19 39 -6 131
-20 205 -31 371 -56 408 -61 433 -49 32 14 45 43 51 116 3 32 10 112 16 178
12 134 16 169 65 575 14 120 57 519 75 705 5 50 13 135 19 190 10 98 14 138
46 435 8 80 24 235 35 345 12 110 27 250 35 310 23 169 21 206 -12 237 -28 25
-43 29 -188 48 -38 5 -218 30 -400 55 -181 26 -360 51 -397 56 -38 5 -98 13
-135 18 -272 38 -330 46 -638 86 -154 20 -317 40 -362 46 -46 5 -120 13 -165
18 -129 15 -240 27 -553 60 -159 17 -330 35 -380 40 -252 28 -502 51 -920 86
-99 8 -216 19 -260 25 -44 5 -114 12 -155 15 -121 9 -164 17 -148 26 19 11
215 55 313 70 128 20 370 16 500 -8 164 -31 167 -32 480 -48 293 -16 463 -35
900 -99 132 -20 346 -47 475 -61 423 -45 1012 -125 1745 -235 77 -12 195 -28
263 -36 164 -19 168 -20 187 -61 19 -40 21 0 -31 -638 -36 -442 -48 -565 -89
-970 -26 -259 -110 -1075 -120 -1180 -4 -32 -12 -156 -20 -275 -7 -118 -19
-227 -25 -241 -14 -31 -48 -49 -92 -49 -25 0 -537 66 -858 110 -41 6 -282 37
-535 70 -253 33 -530 69 -615 80 -866 114 -1080 136 -1995 205 -330 25 -658
50 -730 55 -71 6 -188 15 -260 20 -423 33 -540 42 -720 61 -426 43 -507 50
-730 59 -126 6 -489 15 -805 20 -316 5 -701 17 -855 26 -254 16 -363 16 -1165
5 -857 -12 -1518 -30 -1880 -51 -394 -23 -1155 -78 -1377 -100 -57 -5 -151
-15 -210 -21 -276 -27 -694 -85 -1418 -198 -176 -27 -417 -61 -535 -75 -491
-58 -836 -131 -1137 -240 -121 -43 -185 -30 -223 45 -24 46 -29 80 -110 799
-41 366 -106 891 -155 1265 -89 678 -138 1017 -150 1050 -26 71 -16 127 33
178 40 43 73 56 190 78 59 11 197 37 307 59 315 61 534 94 1030 155 321 40
514 66 650 90 216 38 369 66 376 70 3 3 71 11 150 20 136 14 191 19 449 45 58
6 236 24 395 40 585 60 826 79 1105 90 157 7 319 15 360 19 134 14 120 20 168
-66z m2447 -482 c178 -7 194 -9 251 -35 109 -49 168 -129 200 -274 22 -94 31
-468 14 -581 -13 -95 -61 -204 -147 -340 -43 -70 -45 -75 -28 -85 42 -25 95
-80 115 -120 33 -69 39 -136 31 -371 -6 -177 -11 -226 -24 -252 -36 -68 -97
-82 -269 -63 -121 13 -160 27 -179 63 -22 41 -38 141 -39 242 -1 120 -20 174
-72 201 -30 16 -72 17 -456 15 -422 -2 -464 -6 -476 -37 -3 -8 2 -89 10 -181
9 -93 13 -191 9 -220 -15 -122 -92 -152 -335 -132 -74 7 -141 16 -148 22 -44
35 -45 53 -92 1082 -6 127 -15 320 -20 430 -24 505 -24 486 2 525 13 19 35 40
48 47 25 11 335 34 745 53 385 19 596 21 860 11z m705 -26 c200 -30 432 -36
910 -25 250 5 484 15 520 21 82 13 442 -15 477 -37 42 -27 47 -49 47 -244 0
-163 -2 -190 -19 -225 -31 -62 -57 -70 -190 -56 -61 6 -202 11 -313 11 -232 0
-229 1 -256 -91 -16 -51 -21 -164 -46 -994 -9 -333 -17 -381 -73 -441 -46 -49
-115 -62 -239 -45 -216 31 -258 71 -244 236 4 38 13 346 21 683 17 670 17 661
-40 698 -23 15 -61 17 -343 18 -286 1 -321 3 -345 19 l-27 17 0 241 0 241 28
-6 c15 -3 74 -13 132 -21z m2253 -39 c40 -8 108 -17 152 -21 117 -9 175 -24
202 -52 28 -27 28 -51 0 -323 -17 -160 -33 -346 -67 -775 -26 -331 -51 -616
-70 -820 -10 -101 -13 -112 -40 -140 l-29 -29 -153 2 c-84 2 -169 7 -188 12
-44 12 -84 53 -98 100 -16 56 -23 293 -12 440 6 74 15 191 20 260 16 217 30
394 60 784 17 208 30 403 30 433 0 94 32 141 98 142 13 1 55 -5 95 -13z
m-5608 -81 c18 -13 46 -52 63 -87 17 -35 99 -202 182 -373 84 -170 178 -364
210 -430 218 -454 415 -854 480 -973 63 -117 66 -156 15 -178 -19 -8 -66 -14
-107 -14 -40 0 -118 -7 -172 -15 -55 -8 -114 -15 -133 -15 -79 0 -135 58 -188
196 -25 66 -50 110 -72 133 -33 33 -34 34 -101 27 -37 -4 -132 -16 -212 -27
-80 -10 -197 -26 -260 -35 -294 -39 -462 -65 -479 -74 -41 -21 -66 -84 -82
-208 -14 -104 -27 -134 -71 -155 -18 -8 -152 -33 -298 -56 -146 -23 -366 -57
-490 -77 -279 -45 -395 -49 -459 -16 -24 13 -60 36 -80 51 -20 16 -143 114
-273 218 -131 105 -277 216 -324 249 l-86 59 -124 0 c-88 0 -127 -4 -136 -13
-27 -27 -14 -173 41 -442 33 -159 51 -268 47 -289 -10 -63 -56 -94 -161 -106
-33 -4 -105 -18 -159 -32 -154 -38 -179 -27 -209 97 -20 80 -146 747 -313
1655 -51 277 -51 309 -1 333 51 24 246 63 329 64 136 3 173 -24 202 -153 15
-64 39 -252 51 -409 8 -104 24 -137 68 -145 43 -8 135 9 185 34 58 30 96 79
164 214 33 67 80 147 103 177 43 57 85 127 174 291 97 177 173 231 364 255 62
8 174 28 250 44 76 17 153 30 171 30 32 0 94 -17 108 -29 14 -12 -16 -96 -50
-146 -20 -27 -108 -153 -197 -280 -454 -646 -452 -642 -465 -681 -22 -63 -9
-77 263 -279 159 -118 359 -273 596 -463 136 -109 168 -121 198 -72 7 10 60
189 117 397 242 874 428 1520 464 1613 22 55 75 83 182 95 30 3 109 15 175 26
131 21 278 35 394 38 64 1 78 -2 106 -24z m6620 -26 c344 -36 454 -55 505 -87
42 -26 48 -35 103 -167 113 -268 416 -1023 552 -1372 29 -75 53 -123 61 -123
8 0 14 3 14 8 0 4 11 63 25 131 22 108 46 281 84 601 43 357 55 452 72 580 11
80 26 156 32 169 7 14 27 34 46 45 32 19 36 19 128 2 154 -27 307 -66 327 -84
10 -9 22 -27 27 -39 7 -19 -27 -303 -61 -498 -10 -62 -142 -917 -160 -1040
-42 -292 -62 -414 -71 -442 -22 -67 -78 -78 -234 -44 -50 11 -144 27 -210 36
-392 51 -390 51 -428 93 -19 21 -66 129 -219 502 -204 501 -292 709 -355 840
-69 146 -143 280 -153 280 -11 0 -29 -98 -40 -215 -6 -60 -24 -265 -40 -455
-58 -660 -69 -763 -88 -783 -9 -11 -39 -30 -66 -44 -38 -19 -59 -24 -95 -20
-25 3 -92 10 -149 16 -191 20 -211 46 -192 236 33 339 52 541 70 750 11 132
24 286 30 343 5 56 15 150 21 210 5 59 17 166 25 238 35 316 33 310 109 345
44 20 28 21 330 -12z m3075 -470 c404 -56 737 -152 1012 -290 200 -101 289
-267 253 -472 -16 -90 -62 -277 -70 -286 -17 -16 -424 73 -471 104 -16 10 -23
29 -28 69 -14 110 -65 170 -170 201 -259 77 -771 181 -832 169 -56 -10 -97
-39 -123 -84 -37 -67 -141 -661 -141 -810 0 -156 48 -194 326 -254 88 -19 229
-50 314 -69 202 -45 302 -61 335 -53 38 10 132 101 145 142 6 18 8 43 5 55 -9
26 -62 59 -97 59 -88 0 -494 108 -516 137 -16 21 -12 65 19 218 27 130 36 147
79 157 56 12 670 -111 875 -175 61 -19 128 -38 150 -41 22 -4 50 -14 63 -22
31 -20 29 -69 -8 -213 -16 -64 -54 -218 -85 -343 -30 -125 -67 -254 -82 -285
-36 -78 -116 -156 -200 -196 -65 -30 -74 -32 -183 -31 -177 1 -489 50 -860
135 -118 28 -270 61 -336 74 -147 30 -189 44 -263 89 -101 62 -172 152 -212
268 -19 56 -21 82 -20 240 4 500 79 918 215 1198 51 106 151 212 242 258 166
83 335 96 664 51z m-7143 -2733 c88 -16 146 -41 179 -78 12 -12 69 -118 127
-234 58 -116 161 -316 230 -445 142 -267 211 -404 222 -437 l7 -24 -185 4
c-213 3 -221 6 -269 94 -34 61 -80 104 -116 105 -15 1 -181 1 -370 0 -398 0
-389 2 -433 -91 -15 -30 -39 -66 -54 -80 l-27 -25 -854 0 -854 0 -27 28 -28
27 4 552 c2 316 7 560 12 570 11 21 47 32 104 32 22 0 304 0 627 -2 518 -2
588 -4 602 -18 13 -12 16 -38 16 -119 0 -81 -3 -107 -16 -119 -8 -9 -16 -17
-17 -18 -1 -1 -210 -5 -464 -8 -530 -6 -497 1 -497 -94 -1 -33 4 -60 12 -68
10 -10 104 -13 437 -14 234 -1 436 -5 449 -8 33 -8 45 -51 42 -148 -3 -128 37
-118 -472 -118 -479 0 -457 3 -470 -65 -7 -41 2 -83 23 -107 15 -17 49 -18
446 -18 370 0 434 -2 462 -16 38 -18 59 -60 70 -144 4 -30 10 -60 14 -67 6
-11 116 180 274 472 33 61 93 184 133 274 101 228 167 316 276 372 97 50 230
62 385 35z m-3492 -6 c50 -11 71 -37 79 -97 4 -27 8 -210 10 -407 l3 -360 27
-23 27 -23 380 0 c229 0 388 -4 399 -10 26 -14 40 -63 40 -145 0 -82 -14 -131
-40 -145 -28 -15 -1152 -13 -1184 1 -14 7 -29 24 -34 38 -10 31 -8 1119 2
1142 4 9 17 21 29 27 27 13 208 15 262 2z m5611 -4 c118 -4 170 -23 227 -82
66 -68 108 -188 93 -267 -8 -44 -1 -43 -194 -21 -174 19 -201 27 -237 64 l-29
30 -343 0 c-374 0 -395 -3 -429 -55 -16 -25 -18 -52 -15 -279 2 -271 4 -278
58 -313 24 -16 63 -18 375 -22 391 -4 380 -5 418 69 28 54 25 73 -12 95 -29
17 -59 20 -226 25 -230 6 -222 2 -222 122 0 127 -32 118 425 118 l386 0 24
-25 c17 -16 25 -35 25 -57 0 -85 -32 -379 -46 -427 -20 -70 -90 -142 -154
-159 -62 -16 -688 -36 -955 -30 -170 4 -232 9 -273 22 -73 23 -142 92 -173
171 -23 58 -23 69 -21 315 2 288 17 505 38 555 20 48 70 102 118 128 38 20 58
22 286 27 244 5 664 3 856 -4z m784 -11 c12 -11 26 -28 32 -38 6 -11 11 -174
14 -394 5 -417 6 -422 70 -449 28 -12 92 -15 307 -15 150 -1 289 2 309 6 44 8
113 73 127 119 13 43 31 367 31 568 0 162 1 168 24 195 23 27 28 28 118 29
120 1 160 -9 192 -47 l26 -31 0 -306 c-1 -169 -5 -377 -9 -462 -10 -179 -23
-220 -91 -287 -70 -69 -133 -82 -520 -108 -196 -13 -254 -13 -445 0 -293 18
-383 47 -448 143 -55 81 -59 110 -64 587 -5 460 -3 488 37 503 11 4 76 7 144
7 109 0 127 -3 146 -20z m2758 6 c27 -14 35 -59 30 -156 -3 -61 -7 -79 -26
-97 l-23 -23 -437 3 c-479 3 -479 3 -494 -55 -12 -45 10 -105 42 -114 14 -4
208 -7 432 -8 l407 -1 28 -24 c27 -23 28 -28 27 -104 -1 -43 -7 -89 -13 -100
-24 -45 -34 -46 -448 -43 -441 3 -455 1 -473 -55 -7 -20 -9 -51 -6 -69 13 -67
3 -66 489 -65 489 2 477 3 496 -67 6 -21 11 -66 11 -100 0 -52 -4 -66 -26 -92
l-26 -31 -634 0 c-621 0 -634 0 -654 20 -20 20 -20 33 -20 588 0 529 1 570 18
584 9 9 23 17 29 19 7 2 291 3 632 3 432 -2 625 -5 639 -13z m2895 -196 c16
-15 47 -135 47 -180 0 -30 -30 -45 -89 -45 -87 0 -165 -36 -301 -140 -41 -32
-131 -86 -200 -120 -69 -34 -215 -114 -324 -178 -110 -63 -245 -134 -300 -157
-115 -48 -936 -424 -1311 -600 -137 -65 -279 -131 -315 -148 -36 -16 -238
-113 -450 -215 -728 -349 -826 -394 -1215 -562 -554 -238 -642 -278 -1016
-466 -690 -345 -1018 -483 -1336 -564 -112 -28 -675 -139 -743 -146 -99 -11
-474 55 -723 127 -188 54 -302 101 -582 239 -132 65 -282 137 -332 159 -224
99 -289 129 -663 306 -858 407 -859 408 -1258 581 -274 118 -343 151 -657 311
-154 78 -390 189 -525 246 -774 330 -939 406 -1540 707 -501 250 -712 361
-931 488 -191 111 -242 137 -297 152 -38 10 -42 14 -36 33 9 29 60 127 77 150
20 24 82 22 142 -7 75 -35 569 -306 735 -403 79 -47 187 -107 240 -133 92 -46
494 -234 535 -250 55 -21 508 -237 800 -380 410 -201 476 -231 700 -314 99
-37 281 -116 405 -176 124 -60 362 -168 530 -241 429 -185 568 -250 817 -382
280 -149 458 -235 938 -450 215 -96 458 -207 541 -246 212 -99 459 -176 689
-213 113 -18 521 -15 712 6 327 35 411 58 693 186 58 26 245 104 415 173 496
200 672 280 1195 542 367 183 638 311 905 425 132 57 393 175 580 262 187 88
453 211 590 273 138 62 394 178 570 258 445 201 606 279 1280 616 325 163 658
337 741 387 83 50 158 94 165 97 28 11 88 7 102 -8z"/>
<path d="M13285 16210 c-27 -16 -45 -30 -40 -30 6 0 60 -14 120 -30 61 -17
147 -37 193 -45 46 -7 95 -21 109 -30 18 -12 37 -15 72 -10 62 8 95 -6 161
-70 30 -29 89 -74 130 -100 41 -27 168 -119 281 -206 192 -148 231 -183 554
-511 192 -194 405 -416 475 -493 126 -138 355 -369 375 -376 11 -5 138 -146
177 -199 15 -20 31 -55 37 -79 5 -24 15 -48 23 -53 27 -18 176 -98 182 -98 4
0 -5 22 -18 48 -29 58 -97 129 -130 138 -18 4 -38 31 -78 101 -35 63 -71 111
-105 142 -28 25 -57 60 -64 76 -8 17 -47 70 -89 118 -41 49 -91 108 -110 131
-19 23 -127 149 -240 281 -113 132 -253 296 -312 365 -148 175 -288 322 -393
415 -49 44 -92 82 -95 85 -14 16 -154 132 -220 181 -41 31 -127 84 -190 117
-63 33 -141 74 -174 91 -32 17 -70 31 -85 31 -16 0 -54 9 -86 20 -50 17 -84
20 -234 20 l-176 0 -50 -30z"/>
<path d="M16262 13700 c7 -11 17 -20 22 -20 5 0 1 9 -9 20 -10 11 -20 20 -22
20 -2 0 2 -9 9 -20z"/>
<path d="M7276 14228 c-66 -311 -67 -444 -6 -611 41 -112 57 -126 117 -106 60
19 65 44 83 374 l10 190 -28 85 -29 85 -71 3 c-67 3 -72 2 -76 -20z m150 -214
c3 -13 3 -43 -1 -66 -4 -24 -7 -70 -6 -103 1 -56 -23 -169 -40 -189 -4 -4 -28
27 -53 70 -44 75 -46 82 -46 157 0 79 0 80 38 114 61 57 97 62 108 17z"/>
<path d="M11440 13675 c0 -8 4 -15 10 -15 5 0 7 7 4 15 -4 8 -8 15 -10 15 -2
0 -4 -7 -4 -15z"/>
<path d="M12480 13683 c52 -26 154 -76 225 -111 178 -87 267 -142 405 -247
127 -98 152 -118 376 -305 321 -269 432 -330 593 -330 l66 1 -35 29 c-19 17
-150 117 -290 223 -140 105 -370 280 -510 387 -328 250 -460 342 -535 370 -52
21 -81 24 -225 27 l-165 3 95 -47z"/>
<path d="M17017 13227 c-3 -19 1 -63 9 -98 17 -82 17 -138 0 -180 -39 -96 -28
-197 36 -324 21 -43 45 -102 53 -131 19 -73 42 -113 69 -120 39 -9 91 20 126
72 l33 47 -12 96 c-24 176 -56 272 -176 512 -65 128 -75 142 -111 153 -18 6
-22 2 -27 -27z"/>
<path d="M10432 13609 c-61 -30 -147 -142 -162 -211 -6 -29 -20 -93 -31 -143
-26 -115 -35 -301 -20 -388 17 -97 56 -208 114 -325 56 -113 59 -116 159 -135
47 -9 64 -7 101 7 82 31 158 138 213 299 53 155 56 345 9 536 -29 117 -63 187
-136 278 -79 100 -157 126 -247 82z m280 -270 c11 -6 29 -32 41 -57 20 -43 22
-67 25 -277 3 -206 1 -234 -15 -265 -34 -66 -134 -89 -218 -51 -49 22 -137
117 -171 183 -27 53 -25 71 4 45 30 -28 105 -57 148 -57 44 0 119 34 173 78
l34 29 -7 74 c-7 71 -9 75 -46 102 -21 15 -45 27 -53 27 -21 0 -30 -33 -22
-79 5 -32 2 -43 -18 -66 -19 -23 -29 -27 -51 -21 -49 12 -76 49 -76 102 0 71
19 121 68 175 55 62 132 86 184 58z"/>
<path d="M11309 10991 c-18 -9 -42 -29 -53 -44 -20 -27 -21 -40 -18 -219 l2
-190 36 -44 c25 -30 46 -45 69 -50 19 -3 204 -4 412 -2 l378 3 58 27 c50 23
61 34 78 73 19 42 20 63 17 208 -3 171 -14 213 -57 236 -11 6 -195 12 -454 15
-391 3 -439 2 -468 -13z"/>
<path d="M9299 10809 c-36 -56 -52 -102 -105 -289 -19 -69 -58 -198 -85 -287
-27 -89 -49 -169 -49 -177 0 -9 9 -20 21 -26 42 -23 483 29 615 72 21 7 40 20
42 30 5 28 -307 637 -351 685 -22 24 -43 43 -47 43 -4 0 -23 -23 -41 -51z"/>
<path d="M12057 7783 c-86 -123 -170 -280 -171 -321 -2 -56 19 -62 229 -62
198 0 228 7 233 52 2 16 -13 59 -38 110 -42 83 -160 267 -185 288 -10 8 -25
-6 -68 -67z"/>
<path d="M10235 16271 c-27 -10 -72 -29 -100 -43 -27 -14 -63 -28 -78 -32 -36
-9 -49 -41 -32 -83 l14 -32 -62 2 c-79 2 -128 -21 -173 -82 -43 -59 -114 -238
-121 -307 -5 -51 -5 -53 21 -60 14 -3 46 -3 71 0 25 4 45 4 45 -1 0 -5 -16
-55 -36 -113 -72 -211 -104 -413 -103 -655 1 -93 4 -183 8 -200 6 -30 6 -30
21 -9 38 53 161 177 169 168 4 -5 16 -47 25 -94 50 -241 57 -263 98 -302 21
-21 43 -38 47 -38 5 0 14 14 21 31 7 17 30 42 52 56 31 21 46 25 81 20 24 -3
50 -9 59 -12 26 -10 58 29 58 70 0 28 30 83 153 275 192 302 197 310 197 338
l0 23 -32 -25 c-21 -16 -92 -123 -198 -300 l-165 -275 -43 -1 c-35 0 -44 4
-51 22 -4 13 -5 34 -1 48 9 32 79 170 143 284 27 49 56 109 63 133 l14 45 -23
-14 c-12 -8 -94 -123 -182 -255 -88 -133 -165 -242 -172 -242 -17 -1 -43 92
-43 151 0 67 29 120 109 198 36 36 82 93 103 127 34 57 35 62 19 77 -15 14
-31 7 -183 -84 -91 -55 -172 -100 -178 -100 -17 0 -7 54 20 113 28 59 87 119
145 146 57 27 169 51 243 52 31 1 70 4 87 8 l30 6 -32 23 c-105 75 -227 88
-366 39 -42 -15 -89 -27 -103 -27 -25 0 -26 2 -19 38 9 51 48 115 92 151 69
57 164 60 308 7 38 -14 70 -24 71 -23 4 4 -193 446 -219 489 -30 53 -26 66 13
38 35 -25 42 -25 66 1 10 12 52 37 93 56 l73 34 -4 61 c-4 48 -9 65 -27 79
-27 22 -23 22 -86 0z"/>
<path d="M11550 15871 c-36 -10 -74 -22 -85 -28 -26 -14 -203 -198 -334 -346
-110 -126 -141 -183 -141 -260 0 -106 57 -205 144 -249 52 -27 163 -29 221 -4
49 21 100 69 125 116 32 62 54 75 126 73 50 -2 72 3 99 18 19 12 35 25 35 30
0 20 -42 49 -69 49 -22 0 -39 11 -70 46 -23 26 -41 52 -41 59 0 7 14 15 31 19
66 13 121 6 191 -25 56 -24 78 -29 109 -24 44 8 46 13 23 57 -13 24 -42 43
-147 93 -76 37 -145 77 -162 95 l-30 31 25 20 c48 39 65 40 201 19 102 -16
139 -18 170 -10 42 12 45 19 28 69 -8 21 -24 38 -51 52 -69 35 -291 119 -312
118 -12 0 -50 -9 -86 -18z"/>
<path d="M10817 15268 c-33 -51 -41 -93 -34 -164 9 -88 83 -238 134 -271 25
-17 104 -25 117 -12 3 3 -19 68 -49 145 -31 76 -72 183 -91 237 -20 53 -39 99
-43 102 -4 2 -19 -15 -34 -37z"/>
</g>
</svg>
